<svg xmlns="http://www.w3.org/2000/svg" viewBox="0 0 32 32">
  <rect width="32" height="32" rx="7" fill="#23402e"/>
  <g>
    <path d="M16 17c-2.2-6.4-6.4-9.4-10-8.3C2.8 9.6 2.4 14.6 5 18.4c2.3 3.4 7.2 3.8 11 1.4z" fill="#e88a3c"/>
    <path d="M16 17c2.2-6.4 6.4-9.4 10-8.3 3.2 1 3.6 6-1 9.7-2.3 3.4-7.2 3.8-9 1z" fill="#f0b24a"/>
    <path d="M16 16.5c-1.5-3.2-3.7-7.3-3.7-9.9S14.4 2.2 16 2.2s3.7 1.7 3.7 4.4-2.2 6.7-3.7 9.9z" fill="#cf6a2c" opacity=".85"/>
    <rect x="15.1" y="9" width="1.8" height="16" rx=".9" fill="#3a2a18"/>
  </g>
</svg>
